<svg xmlns="http://www.w3.org/2000/svg" viewBox="0 0 1920 64" class="design-iconfont">
  <path data-name="路径 66" d="M1216.375,481H792V417h461S1216,480.5,1216.375,481Z" transform="translate(-792 -417)" fill="#668eff"/>
  <g data-name="组 55">
    <path data-name="路径 69" d="M-10,0H782L766,28H6Z" transform="translate(575)" fill="#668eff"/>
    <path data-name="路径 73" d="M1867.263,91H1793l4,4h72.365Z" transform="translate(-1298 -68.513)" fill="#668eff"/>
    <path data-name="路径 71" d="M1884,91h-97l9.513,9.513H1889Z" transform="translate(-1321 -82)" fill="#668eff"/>
    <path data-name="路径 74" d="M1038.333,91h720" transform="translate(-438.833 -74)" fill="none" stroke="#fff" stroke-width="2"/>
    <path data-name="路径 126" d="M1795.1,91h74.263l-4,4H1793Z" transform="translate(-442.365 -68.513)" fill="#668eff"/>
    <path data-name="路径 127" d="M1792,91h97l-9.513,9.513H1787Z" transform="translate(-433 -82)" fill="#668eff"/>
    <path data-name="路径 129" d="M2,0H994l4,6H-2Z" transform="translate(462)" fill="#668eff"/>
  </g>
  <g data-name="组 54">
    <path data-name="路径 125" d="M828.625,481H1253V417H792S829,480.5,828.625,481Z" transform="translate(667 -417)" fill="#668eff"/>
  </g>
</svg>
