<svg xmlns="http://www.w3.org/2000/svg" width="1921" height="1081" viewBox="0 0 1921 1081">
  <defs>
    <style>
      .cls-1 {
        fill: #eef4f9;
      }

      .cls-2 {
        opacity: 0.6;
      }

      .cls-3 {
        fill: none;
        stroke: #d2eaff;
        stroke-miterlimit: 10;
      }
    </style>
  </defs>
  <g id="组_57" data-name="组 57" transform="translate(0.5 0.5)">
    <rect id="矩形_93" data-name="矩形 93" class="cls-1" width="1920" height="1080"/>
    <g id="组_30" data-name="组 30" class="cls-2" transform="translate(-0.5 -0.5)">
      <rect id="矩形_80" data-name="矩形 80" class="cls-3" width="1920" height="1080" transform="translate(0.5 0.5)"/>
      <line id="直线_16" data-name="直线 16" class="cls-3" x2="1920" transform="translate(0.5 1065.289)"/>
      <line id="直线_17" data-name="直线 17" class="cls-3" x2="1920" transform="translate(0.5 1050.078)"/>
      <line id="直线_18" data-name="直线 18" class="cls-3" x2="1920" transform="translate(0.5 1034.866)"/>
      <line id="直线_19" data-name="直线 19" class="cls-3" x2="1920" transform="translate(0.5 1019.655)"/>
      <line id="直线_20" data-name="直线 20" class="cls-3" x2="1920" transform="translate(0.5 1004.444)"/>
      <line id="直线_21" data-name="直线 21" class="cls-3" x2="1920" transform="translate(0.5 989.232)"/>
      <line id="直线_22" data-name="直线 22" class="cls-3" x2="1920" transform="translate(0.5 974.021)"/>
      <line id="直线_23" data-name="直线 23" class="cls-3" x2="1920" transform="translate(0.5 958.81)"/>
      <line id="直线_24" data-name="直线 24" class="cls-3" x2="1920" transform="translate(0.5 943.599)"/>
      <line id="直线_25" data-name="直线 25" class="cls-3" x2="1920" transform="translate(0.5 928.387)"/>
      <line id="直线_26" data-name="直线 26" class="cls-3" x2="1920" transform="translate(0.5 913.176)"/>
      <line id="直线_27" data-name="直线 27" class="cls-3" x2="1920" transform="translate(0.5 897.965)"/>
      <line id="直线_28" data-name="直线 28" class="cls-3" x2="1920" transform="translate(0.5 882.754)"/>
      <line id="直线_29" data-name="直线 29" class="cls-3" x2="1920" transform="translate(0.5 867.542)"/>
      <line id="直线_30" data-name="直线 30" class="cls-3" x2="1920" transform="translate(0.5 852.331)"/>
      <line id="直线_31" data-name="直线 31" class="cls-3" x2="1920" transform="translate(0.5 837.12)"/>
      <line id="直线_32" data-name="直线 32" class="cls-3" x2="1920" transform="translate(0.5 821.908)"/>
      <line id="直线_33" data-name="直线 33" class="cls-3" x2="1920" transform="translate(0.5 806.697)"/>
      <line id="直线_34" data-name="直线 34" class="cls-3" x2="1920" transform="translate(0.5 791.486)"/>
      <line id="直线_35" data-name="直线 35" class="cls-3" x2="1920" transform="translate(0.5 776.275)"/>
      <line id="直线_36" data-name="直线 36" class="cls-3" x2="1920" transform="translate(0.5 761.063)"/>
      <line id="直线_37" data-name="直线 37" class="cls-3" x2="1920" transform="translate(0.5 745.852)"/>
      <line id="直线_38" data-name="直线 38" class="cls-3" x2="1920" transform="translate(0.5 730.641)"/>
      <line id="直线_39" data-name="直线 39" class="cls-3" x2="1920" transform="translate(0.5 715.43)"/>
      <line id="直线_40" data-name="直线 40" class="cls-3" x2="1920" transform="translate(0.5 700.218)"/>
      <line id="直线_41" data-name="直线 41" class="cls-3" x2="1920" transform="translate(0.5 685.007)"/>
      <line id="直线_42" data-name="直线 42" class="cls-3" x2="1920" transform="translate(0.5 669.796)"/>
      <line id="直线_43" data-name="直线 43" class="cls-3" x2="1920" transform="translate(0.5 654.585)"/>
      <line id="直线_44" data-name="直线 44" class="cls-3" x2="1920" transform="translate(0.5 639.373)"/>
      <line id="直线_45" data-name="直线 45" class="cls-3" x2="1920" transform="translate(0.5 624.162)"/>
      <line id="直线_46" data-name="直线 46" class="cls-3" x2="1920" transform="translate(0.5 608.951)"/>
      <line id="直线_47" data-name="直线 47" class="cls-3" x2="1920" transform="translate(0.5 593.739)"/>
      <line id="直线_48" data-name="直线 48" class="cls-3" x2="1920" transform="translate(0.5 578.528)"/>
      <line id="直线_49" data-name="直线 49" class="cls-3" x2="1920" transform="translate(0.5 563.317)"/>
      <line id="直线_50" data-name="直线 50" class="cls-3" x2="1920" transform="translate(0.5 548.106)"/>
      <line id="直线_51" data-name="直线 51" class="cls-3" x2="1920" transform="translate(0.5 532.894)"/>
      <line id="直线_52" data-name="直线 52" class="cls-3" x2="1920" transform="translate(0.5 517.683)"/>
      <line id="直线_53" data-name="直线 53" class="cls-3" x2="1920" transform="translate(0.5 502.472)"/>
      <line id="直线_54" data-name="直线 54" class="cls-3" x2="1920" transform="translate(0.5 487.261)"/>
      <line id="直线_55" data-name="直线 55" class="cls-3" x2="1920" transform="translate(0.5 472.049)"/>
      <line id="直线_56" data-name="直线 56" class="cls-3" x2="1920" transform="translate(0.5 456.838)"/>
      <line id="直线_57" data-name="直线 57" class="cls-3" x2="1920" transform="translate(0.5 441.627)"/>
      <line id="直线_58" data-name="直线 58" class="cls-3" x2="1920" transform="translate(0.5 426.415)"/>
      <line id="直线_59" data-name="直线 59" class="cls-3" x2="1920" transform="translate(0.5 411.204)"/>
      <line id="直线_60" data-name="直线 60" class="cls-3" x2="1920" transform="translate(0.5 395.993)"/>
      <line id="直线_61" data-name="直线 61" class="cls-3" x2="1920" transform="translate(0.5 380.782)"/>
      <line id="直线_62" data-name="直线 62" class="cls-3" x2="1920" transform="translate(0.5 365.57)"/>
      <line id="直线_63" data-name="直线 63" class="cls-3" x2="1920" transform="translate(0.5 350.359)"/>
      <line id="直线_64" data-name="直线 64" class="cls-3" x2="1920" transform="translate(0.5 335.148)"/>
      <line id="直线_65" data-name="直线 65" class="cls-3" x2="1920" transform="translate(0.5 319.937)"/>
      <line id="直线_66" data-name="直线 66" class="cls-3" x2="1920" transform="translate(0.5 304.725)"/>
      <line id="直线_67" data-name="直线 67" class="cls-3" x2="1920" transform="translate(0.5 289.514)"/>
      <line id="直线_68" data-name="直线 68" class="cls-3" x2="1920" transform="translate(0.5 274.303)"/>
      <line id="直线_69" data-name="直线 69" class="cls-3" x2="1920" transform="translate(0.5 259.092)"/>
      <line id="直线_70" data-name="直线 70" class="cls-3" x2="1920" transform="translate(0.5 243.88)"/>
      <line id="直线_71" data-name="直线 71" class="cls-3" x2="1920" transform="translate(0.5 228.669)"/>
      <line id="直线_72" data-name="直线 72" class="cls-3" x2="1920" transform="translate(0.5 213.458)"/>
      <line id="直线_73" data-name="直线 73" class="cls-3" x2="1920" transform="translate(0.5 198.246)"/>
      <line id="直线_74" data-name="直线 74" class="cls-3" x2="1920" transform="translate(0.5 183.035)"/>
      <line id="直线_75" data-name="直线 75" class="cls-3" x2="1920" transform="translate(0.5 167.824)"/>
      <line id="直线_76" data-name="直线 76" class="cls-3" x2="1920" transform="translate(0.5 152.613)"/>
      <line id="直线_77" data-name="直线 77" class="cls-3" x2="1920" transform="translate(0.5 137.401)"/>
      <line id="直线_78" data-name="直线 78" class="cls-3" x2="1920" transform="translate(0.5 122.19)"/>
      <line id="直线_79" data-name="直线 79" class="cls-3" x2="1920" transform="translate(0.5 106.979)"/>
      <line id="直线_80" data-name="直线 80" class="cls-3" x2="1920" transform="translate(0.5 91.768)"/>
      <line id="直线_81" data-name="直线 81" class="cls-3" x2="1920" transform="translate(0.5 76.556)"/>
      <line id="直线_82" data-name="直线 82" class="cls-3" x2="1920" transform="translate(0.5 61.345)"/>
      <line id="直线_83" data-name="直线 83" class="cls-3" x2="1920" transform="translate(0.5 46.134)"/>
      <line id="直线_84" data-name="直线 84" class="cls-3" x2="1920" transform="translate(0.5 30.923)"/>
      <line id="直线_85" data-name="直线 85" class="cls-3" x2="1920" transform="translate(0.5 15.711)"/>
      <line id="直线_86" data-name="直线 86" class="cls-3" y2="1080" transform="translate(1905.262 0.5)"/>
      <line id="直线_87" data-name="直线 87" class="cls-3" y2="1080" transform="translate(1890.024 0.5)"/>
      <line id="直线_88" data-name="直线 88" class="cls-3" y2="1080" transform="translate(1874.786 0.5)"/>
      <line id="直线_89" data-name="直线 89" class="cls-3" y2="1080" transform="translate(1859.548 0.5)"/>
      <line id="直线_90" data-name="直线 90" class="cls-3" y2="1080" transform="translate(1844.31 0.5)"/>
      <line id="直线_91" data-name="直线 91" class="cls-3" y2="1080" transform="translate(1829.071 0.5)"/>
      <line id="直线_92" data-name="直线 92" class="cls-3" y2="1080" transform="translate(1813.833 0.5)"/>
      <line id="直线_93" data-name="直线 93" class="cls-3" y2="1080" transform="translate(1798.595 0.5)"/>
      <line id="直线_94" data-name="直线 94" class="cls-3" y2="1080" transform="translate(1783.357 0.5)"/>
      <line id="直线_95" data-name="直线 95" class="cls-3" y2="1080" transform="translate(1768.119 0.5)"/>
      <line id="直线_96" data-name="直线 96" class="cls-3" y2="1080" transform="translate(1752.881 0.5)"/>
      <line id="直线_97" data-name="直线 97" class="cls-3" y2="1080" transform="translate(1737.643 0.5)"/>
      <line id="直线_98" data-name="直线 98" class="cls-3" y2="1080" transform="translate(1722.405 0.5)"/>
      <line id="直线_99" data-name="直线 99" class="cls-3" y2="1080" transform="translate(1707.167 0.5)"/>
      <line id="直线_100" data-name="直线 100" class="cls-3" y2="1080" transform="translate(1691.929 0.5)"/>
      <line id="直线_101" data-name="直线 101" class="cls-3" y2="1080" transform="translate(1676.69 0.5)"/>
      <line id="直线_102" data-name="直线 102" class="cls-3" y2="1080" transform="translate(1661.452 0.5)"/>
      <line id="直线_103" data-name="直线 103" class="cls-3" y2="1080" transform="translate(1646.214 0.5)"/>
      <line id="直线_104" data-name="直线 104" class="cls-3" y2="1080" transform="translate(1630.976 0.5)"/>
      <line id="直线_105" data-name="直线 105" class="cls-3" y2="1080" transform="translate(1615.738 0.5)"/>
      <line id="直线_106" data-name="直线 106" class="cls-3" y2="1080" transform="translate(1600.5 0.5)"/>
      <line id="直线_107" data-name="直线 107" class="cls-3" y2="1080" transform="translate(1585.262 0.5)"/>
      <line id="直线_108" data-name="直线 108" class="cls-3" y2="1080" transform="translate(1570.024 0.5)"/>
      <line id="直线_109" data-name="直线 109" class="cls-3" y2="1080" transform="translate(1554.786 0.5)"/>
      <line id="直线_110" data-name="直线 110" class="cls-3" y2="1080" transform="translate(1539.548 0.5)"/>
      <line id="直线_111" data-name="直线 111" class="cls-3" y2="1080" transform="translate(1524.31 0.5)"/>
      <line id="直线_112" data-name="直线 112" class="cls-3" y2="1080" transform="translate(1509.071 0.5)"/>
      <line id="直线_113" data-name="直线 113" class="cls-3" y2="1080" transform="translate(1493.833 0.5)"/>
      <line id="直线_114" data-name="直线 114" class="cls-3" y2="1080" transform="translate(1478.595 0.5)"/>
      <line id="直线_115" data-name="直线 115" class="cls-3" y2="1080" transform="translate(1463.357 0.5)"/>
      <line id="直线_116" data-name="直线 116" class="cls-3" y2="1080" transform="translate(1448.119 0.5)"/>
      <line id="直线_117" data-name="直线 117" class="cls-3" y2="1080" transform="translate(1432.881 0.5)"/>
      <line id="直线_118" data-name="直线 118" class="cls-3" y2="1080" transform="translate(1417.643 0.5)"/>
      <line id="直线_119" data-name="直线 119" class="cls-3" y2="1080" transform="translate(1402.405 0.5)"/>
      <line id="直线_120" data-name="直线 120" class="cls-3" y2="1080" transform="translate(1387.167 0.5)"/>
      <line id="直线_121" data-name="直线 121" class="cls-3" y2="1080" transform="translate(1371.929 0.5)"/>
      <line id="直线_122" data-name="直线 122" class="cls-3" y2="1080" transform="translate(1356.69 0.5)"/>
      <line id="直线_123" data-name="直线 123" class="cls-3" y2="1080" transform="translate(1341.452 0.5)"/>
      <line id="直线_124" data-name="直线 124" class="cls-3" y2="1080" transform="translate(1326.214 0.5)"/>
      <line id="直线_125" data-name="直线 125" class="cls-3" y2="1080" transform="translate(1310.976 0.5)"/>
      <line id="直线_126" data-name="直线 126" class="cls-3" y2="1080" transform="translate(1295.738 0.5)"/>
      <line id="直线_127" data-name="直线 127" class="cls-3" y2="1080" transform="translate(1280.5 0.5)"/>
      <line id="直线_128" data-name="直线 128" class="cls-3" y2="1080" transform="translate(1265.262 0.5)"/>
      <line id="直线_129" data-name="直线 129" class="cls-3" y2="1080" transform="translate(1250.024 0.5)"/>
      <line id="直线_130" data-name="直线 130" class="cls-3" y2="1080" transform="translate(1234.786 0.5)"/>
      <line id="直线_131" data-name="直线 131" class="cls-3" y2="1080" transform="translate(1219.548 0.5)"/>
      <line id="直线_132" data-name="直线 132" class="cls-3" y2="1080" transform="translate(1204.31 0.5)"/>
      <line id="直线_133" data-name="直线 133" class="cls-3" y2="1080" transform="translate(1189.071 0.5)"/>
      <line id="直线_134" data-name="直线 134" class="cls-3" y2="1080" transform="translate(1173.833 0.5)"/>
      <line id="直线_135" data-name="直线 135" class="cls-3" y2="1080" transform="translate(1158.595 0.5)"/>
      <line id="直线_136" data-name="直线 136" class="cls-3" y2="1080" transform="translate(1143.357 0.5)"/>
      <line id="直线_137" data-name="直线 137" class="cls-3" y2="1080" transform="translate(1128.119 0.5)"/>
      <line id="直线_138" data-name="直线 138" class="cls-3" y2="1080" transform="translate(1112.881 0.5)"/>
      <line id="直线_139" data-name="直线 139" class="cls-3" y2="1080" transform="translate(1097.643 0.5)"/>
      <line id="直线_140" data-name="直线 140" class="cls-3" y2="1080" transform="translate(1082.405 0.5)"/>
      <line id="直线_141" data-name="直线 141" class="cls-3" y2="1080" transform="translate(1067.167 0.5)"/>
      <line id="直线_142" data-name="直线 142" class="cls-3" y2="1080" transform="translate(1051.929 0.5)"/>
      <line id="直线_143" data-name="直线 143" class="cls-3" y2="1080" transform="translate(1036.69 0.5)"/>
      <line id="直线_144" data-name="直线 144" class="cls-3" y2="1080" transform="translate(1021.452 0.5)"/>
      <line id="直线_145" data-name="直线 145" class="cls-3" y2="1080" transform="translate(1006.214 0.5)"/>
      <line id="直线_146" data-name="直线 146" class="cls-3" y2="1080" transform="translate(990.976 0.5)"/>
      <line id="直线_147" data-name="直线 147" class="cls-3" y2="1080" transform="translate(975.738 0.5)"/>
      <line id="直线_148" data-name="直线 148" class="cls-3" y2="1080" transform="translate(960.5 0.5)"/>
      <line id="直线_149" data-name="直线 149" class="cls-3" y2="1080" transform="translate(945.262 0.5)"/>
      <line id="直线_150" data-name="直线 150" class="cls-3" y2="1080" transform="translate(930.024 0.5)"/>
      <line id="直线_151" data-name="直线 151" class="cls-3" y2="1080" transform="translate(914.786 0.5)"/>
      <line id="直线_152" data-name="直线 152" class="cls-3" y2="1080" transform="translate(899.548 0.5)"/>
      <line id="直线_153" data-name="直线 153" class="cls-3" y2="1080" transform="translate(884.31 0.5)"/>
      <line id="直线_154" data-name="直线 154" class="cls-3" y2="1080" transform="translate(869.071 0.5)"/>
      <line id="直线_155" data-name="直线 155" class="cls-3" y2="1080" transform="translate(853.833 0.5)"/>
      <line id="直线_156" data-name="直线 156" class="cls-3" y2="1080" transform="translate(838.595 0.5)"/>
      <line id="直线_157" data-name="直线 157" class="cls-3" y2="1080" transform="translate(823.357 0.5)"/>
      <line id="直线_158" data-name="直线 158" class="cls-3" y2="1080" transform="translate(808.119 0.5)"/>
      <line id="直线_159" data-name="直线 159" class="cls-3" y2="1080" transform="translate(792.881 0.5)"/>
      <line id="直线_160" data-name="直线 160" class="cls-3" y2="1080" transform="translate(777.643 0.5)"/>
      <line id="直线_161" data-name="直线 161" class="cls-3" y2="1080" transform="translate(762.405 0.5)"/>
      <line id="直线_162" data-name="直线 162" class="cls-3" y2="1080" transform="translate(747.167 0.5)"/>
      <line id="直线_163" data-name="直线 163" class="cls-3" y2="1080" transform="translate(731.929 0.5)"/>
      <line id="直线_164" data-name="直线 164" class="cls-3" y2="1080" transform="translate(716.69 0.5)"/>
      <line id="直线_165" data-name="直线 165" class="cls-3" y2="1080" transform="translate(701.452 0.5)"/>
      <line id="直线_166" data-name="直线 166" class="cls-3" y2="1080" transform="translate(686.214 0.5)"/>
      <line id="直线_167" data-name="直线 167" class="cls-3" y2="1080" transform="translate(670.976 0.5)"/>
      <line id="直线_168" data-name="直线 168" class="cls-3" y2="1080" transform="translate(655.738 0.5)"/>
      <line id="直线_169" data-name="直线 169" class="cls-3" y2="1080" transform="translate(640.5 0.5)"/>
      <line id="直线_170" data-name="直线 170" class="cls-3" y2="1080" transform="translate(625.262 0.5)"/>
      <line id="直线_171" data-name="直线 171" class="cls-3" y2="1080" transform="translate(610.024 0.5)"/>
      <line id="直线_172" data-name="直线 172" class="cls-3" y2="1080" transform="translate(594.786 0.5)"/>
      <line id="直线_173" data-name="直线 173" class="cls-3" y2="1080" transform="translate(579.548 0.5)"/>
      <line id="直线_174" data-name="直线 174" class="cls-3" y2="1080" transform="translate(564.31 0.5)"/>
      <line id="直线_175" data-name="直线 175" class="cls-3" y2="1080" transform="translate(549.071 0.5)"/>
      <line id="直线_176" data-name="直线 176" class="cls-3" y2="1080" transform="translate(533.833 0.5)"/>
      <line id="直线_177" data-name="直线 177" class="cls-3" y2="1080" transform="translate(518.595 0.5)"/>
      <line id="直线_178" data-name="直线 178" class="cls-3" y2="1080" transform="translate(503.357 0.5)"/>
      <line id="直线_179" data-name="直线 179" class="cls-3" y2="1080" transform="translate(488.119 0.5)"/>
      <line id="直线_180" data-name="直线 180" class="cls-3" y2="1080" transform="translate(472.881 0.5)"/>
      <line id="直线_181" data-name="直线 181" class="cls-3" y2="1080" transform="translate(457.643 0.5)"/>
      <line id="直线_182" data-name="直线 182" class="cls-3" y2="1080" transform="translate(442.405 0.5)"/>
      <line id="直线_183" data-name="直线 183" class="cls-3" y2="1080" transform="translate(427.167 0.5)"/>
      <line id="直线_184" data-name="直线 184" class="cls-3" y2="1080" transform="translate(411.929 0.5)"/>
      <line id="直线_185" data-name="直线 185" class="cls-3" y2="1080" transform="translate(396.69 0.5)"/>
      <line id="直线_186" data-name="直线 186" class="cls-3" y2="1080" transform="translate(381.452 0.5)"/>
      <line id="直线_187" data-name="直线 187" class="cls-3" y2="1080" transform="translate(366.214 0.5)"/>
      <line id="直线_188" data-name="直线 188" class="cls-3" y2="1080" transform="translate(350.976 0.5)"/>
      <line id="直线_189" data-name="直线 189" class="cls-3" y2="1080" transform="translate(335.738 0.5)"/>
      <line id="直线_190" data-name="直线 190" class="cls-3" y2="1080" transform="translate(320.5 0.5)"/>
      <line id="直线_191" data-name="直线 191" class="cls-3" y2="1080" transform="translate(305.262 0.5)"/>
      <line id="直线_192" data-name="直线 192" class="cls-3" y2="1080" transform="translate(290.024 0.5)"/>
      <line id="直线_193" data-name="直线 193" class="cls-3" y2="1080" transform="translate(274.786 0.5)"/>
      <line id="直线_194" data-name="直线 194" class="cls-3" y2="1080" transform="translate(259.548 0.5)"/>
      <line id="直线_195" data-name="直线 195" class="cls-3" y2="1080" transform="translate(244.31 0.5)"/>
      <line id="直线_196" data-name="直线 196" class="cls-3" y2="1080" transform="translate(229.071 0.5)"/>
      <line id="直线_197" data-name="直线 197" class="cls-3" y2="1080" transform="translate(213.833 0.5)"/>
      <line id="直线_198" data-name="直线 198" class="cls-3" y2="1080" transform="translate(198.595 0.5)"/>
      <line id="直线_199" data-name="直线 199" class="cls-3" y2="1080" transform="translate(183.357 0.5)"/>
      <line id="直线_200" data-name="直线 200" class="cls-3" y2="1080" transform="translate(168.119 0.5)"/>
      <line id="直线_201" data-name="直线 201" class="cls-3" y2="1080" transform="translate(152.881 0.5)"/>
      <line id="直线_202" data-name="直线 202" class="cls-3" y2="1080" transform="translate(137.643 0.5)"/>
      <line id="直线_203" data-name="直线 203" class="cls-3" y2="1080" transform="translate(122.405 0.5)"/>
      <line id="直线_204" data-name="直线 204" class="cls-3" y2="1080" transform="translate(107.167 0.5)"/>
      <line id="直线_205" data-name="直线 205" class="cls-3" y2="1080" transform="translate(91.929 0.5)"/>
      <line id="直线_206" data-name="直线 206" class="cls-3" y2="1080" transform="translate(76.69 0.5)"/>
      <line id="直线_207" data-name="直线 207" class="cls-3" y2="1080" transform="translate(61.452 0.5)"/>
      <line id="直线_208" data-name="直线 208" class="cls-3" y2="1080" transform="translate(46.214 0.5)"/>
      <line id="直线_209" data-name="直线 209" class="cls-3" y2="1080" transform="translate(30.976 0.5)"/>
      <line id="直线_210" data-name="直线 210" class="cls-3" y2="1080" transform="translate(15.738 0.5)"/>
    
    </g>
  </g>
</svg>
